<?xml version="1.0" encoding="UTF-8"?>
<svg id="Layer_2" data-name="Layer 2" xmlns="http://www.w3.org/2000/svg" viewBox="0 0 990.38 990.38">
  <defs>
    <style>
      .cls-1 {
        fill: #eaeaea;
      }

      .cls-2 {
        fill: #f09a55;
      }

      .cls-3 {
        fill: #cecece;
      }
    </style>
  </defs>
  <g id="USER_PLUS" data-name="USER PLUS">
    <circle class="cls-1" cx="495.19" cy="495.19" r="495.19"/>
    <path class="cls-3" d="m730.89,670.02c-76.09-65.23-157.04-81.01-189.61-85.58,77.68-24.94,130.01-94.23,130.46-168.89.56-94.98-82.97-180.69-184.12-176.42-94.92,4-169.19,85.71-169.05,176.42.11,73.56,49.15,141.55,122.91,168.27-30.41,4.2-114.88,19.93-190.59,90.41-71.85,66.88-94.65,144.75-101.87,175.03,28.65,28.05,77.56,69.15,148.31,99.99,79.3,34.57,151.3,41.12,197.81,41.12,45.83,0,124.08-6.34,210.03-46.59,66.19-31,112.2-70.52,139.73-97.99-9.35-31.48-37.21-109.95-114-175.77Z"/>
    <path class="cls-2" d="m678.59,472.76h-162.59v-160.97c0-12.39-10.04-22.43-22.43-22.43h0c-12.39,0-22.43,10.04-22.43,22.43v160.97h-159.35c-12.39,0-22.43,10.04-22.43,22.43h0c0,12.39,10.04,22.43,22.43,22.43h159.35v160.97c0,12.39,10.04,22.43,22.43,22.43h0c12.39,0,22.43-10.04,22.43-22.43v-160.97h162.59c12.39,0,22.43-10.04,22.43-22.43h0c0-12.39-10.04-22.43-22.43-22.43Z"/>
  </g>
</svg>