<?xml version="1.0" encoding="UTF-8"?>
<svg id="Layer_2" data-name="Layer 2" xmlns="http://www.w3.org/2000/svg" viewBox="0 0 1184.16 1184.16">
  <defs>
    <style>
      .cls-1 {
        fill: #eaeaea;
      }

      .cls-2 {
        fill: #cecece;
      }

      .cls-3 {
        fill: #4050b0;
      }
    </style>
  </defs>
  <g id="Layer_14" data-name="Layer 14">
    <circle class="cls-1" cx="592.08" cy="592.08" r="495.19"/>
    <path class="cls-2" d="m592.08,0C265.08,0,0,265.08,0,592.08s265.08,592.08,592.08,592.08,592.08-265.08,592.08-592.08S919.08,0,592.08,0Zm0,1068.71c-263.23,0-476.63-213.39-476.63-476.63S328.85,115.46,592.08,115.46s476.63,213.39,476.63,476.63-213.39,476.63-476.63,476.63Z"/>
    <path class="cls-3" d="m775.48,569.65h-162.59v-160.97c0-12.39-10.04-22.43-22.43-22.43h0c-12.39,0-22.43,10.04-22.43,22.43v160.97h-159.35c-12.39,0-22.43,10.04-22.43,22.43h0c0,12.39,10.04,22.43,22.43,22.43h159.35v160.97c0,12.39,10.04,22.43,22.43,22.43h0c12.39,0,22.43-10.04,22.43-22.43v-160.97h162.59c12.39,0,22.43-10.04,22.43-22.43h0c0-12.39-10.04-22.43-22.43-22.43Z"/>
  </g>
</svg>