<?xml version="1.0" encoding="UTF-8"?>
<svg xmlns="http://www.w3.org/2000/svg" viewBox="0 0 1308.31 1470.82">
  <defs>
    <style>
      .cls-1 {
        fill: #fff;
      }
    </style>
  </defs>
  <g id="ICON_BACKGROUND" data-name="ICON BACKGROUND">
    <circle class="cls-1" cx="637.77" cy="961.83" r="495.19"/>
    <rect class="cls-1" x="142.58" y="466.64" width="990.38" height="990.38" rx="181.86" ry="181.86"/>
  </g>
  <g id="SEARCH">
    <path d="M891.63,1140.88l-119.19-119.19c51.34-81.66,39.66-188.63-29.18-257.47-81.07-81.07-212.98-81.07-294.05,0-39.27,39.27-60.9,91.49-60.9,147.03s21.63,107.75,60.9,147.03c40.25,40.25,93.53,60.96,147.17,60.96,38.1,0,76.39-10.45,110.3-31.78l119.19,119.19c9.06,9.06,20.97,13.6,32.88,13.6s23.82-4.53,32.88-13.6c18.13-18.13,18.13-47.63,0-65.76Zm-212.29-146.53c-45.82,45.82-120.38,45.82-166.2,0-45.82-45.82-45.82-120.38,0-166.2,22.2-22.2,51.71-34.42,83.1-34.42s60.9,12.22,83.1,34.42c45.82,45.82,45.82,120.38,0,166.2Z"/>
  </g>
</svg>